<svg width="88" height="88" viewBox="0 0 88 88" fill="none" xmlns="http://www.w3.org/2000/svg">
<path fill-rule="evenodd" clip-rule="evenodd" d="M21.4132 36.1387C27.9793 50.433 39.6457 61.7607 54.1272 67.903L54.1712 67.9213L56.9725 69.168C58.7028 69.9396 60.646 70.0922 62.4755 69.6001C64.3051 69.108 65.9095 68.0012 67.0192 66.4657L71.6905 60.0013C71.8279 59.811 71.8869 59.5752 71.8555 59.3425C71.8242 59.1099 71.7047 58.8982 71.5219 58.751L63.3672 52.1693C63.271 52.0917 63.16 52.0344 63.041 52.0007C62.9221 51.9671 62.7975 51.9579 62.6749 51.9737C62.5523 51.9894 62.4341 52.0298 62.3275 52.0924C62.2209 52.155 62.128 52.2386 62.0545 52.338L58.8792 56.6207C58.5051 57.1259 57.9692 57.4878 57.3607 57.6459C56.7522 57.804 56.108 57.7489 55.5352 57.4897C44.6857 52.5747 35.9935 43.8825 31.0785 33.033C30.8193 32.4602 30.7642 31.816 30.9223 31.2075C31.0804 30.599 31.4423 30.0631 31.9475 29.689L36.2265 26.51C36.326 26.4365 36.4095 26.3437 36.4721 26.2371C36.5347 26.1305 36.5751 26.0123 36.5909 25.8897C36.6067 25.767 36.5974 25.6425 36.5638 25.5235C36.5302 25.4045 36.4728 25.2936 36.3952 25.1973L29.8172 17.0427C29.67 16.8598 29.4583 16.7404 29.2257 16.709C28.993 16.6776 28.7572 16.7367 28.5669 16.874L22.0659 21.5673C20.52 22.6824 19.4079 24.2983 18.9186 26.1405C18.4293 27.9827 18.593 29.9375 19.3819 31.6727L21.4132 36.1387ZM51.9565 72.9557C36.2233 66.275 23.5494 53.9634 16.4155 38.4303L16.4082 38.423L14.3769 33.9497C13.0621 31.0583 12.7889 27.8008 13.6037 24.7308C14.4185 21.6608 16.271 18.9676 18.8465 17.1087L25.3475 12.4153C26.679 11.4544 28.3282 11.0404 29.9557 11.2587C31.5831 11.477 33.065 12.3108 34.0962 13.5887L40.6779 21.747C41.221 22.4201 41.6225 23.1961 41.8581 24.0283C42.0938 24.8604 42.1588 25.7317 42.0492 26.5896C41.9396 27.4476 41.6577 28.2745 41.2204 29.0207C40.7831 29.7669 40.1995 30.4171 39.5045 30.932L37.0479 32.7507C41.2014 40.8039 47.7606 47.3632 55.8139 51.5167L57.6362 49.06C58.1511 48.3656 58.8011 47.7825 59.547 47.3455C60.2929 46.9086 61.1194 46.6268 61.9769 46.5173C62.8344 46.4077 63.7052 46.4725 64.537 46.7078C65.3688 46.9431 66.1445 47.3441 66.8175 47.8867L74.9759 54.4683C76.2547 55.4997 77.0893 56.9822 77.3076 58.6106C77.5259 60.2389 77.1113 61.8889 76.1492 63.2207L71.4779 69.6887C69.6288 72.2477 66.9553 74.0925 63.9066 74.9131C60.8579 75.7337 57.6197 75.4802 54.7359 74.195L51.9565 72.9557Z" fill="black"/>
</svg>
